<?xml version="1.0" encoding="utf-8"?>
<svg viewBox="0 0 500 500" xmlns="http://www.w3.org/2000/svg">
  <defs>
    <linearGradient gradientUnits="userSpaceOnUse" x1="249.788" y1="54.851" x2="249.788" y2="468.508" id="gradient-0" gradientTransform="matrix(1, 0, 0, 1, -1.7186, -12.771263)">
      <stop offset="0" style="stop-color: rgba(97, 218, 251, 1)"/>
      <stop offset="1" style="stop-color: rgba(6, 189, 240, 1)"/>
    </linearGradient>
    <linearGradient gradientUnits="userSpaceOnUse" x1="248.725" y1="197.374" x2="248.725" y2="317.619" id="gradient-2" gradientTransform="matrix(1, 0, 0, 1.089188, -1.59085, -33.630074)">
      <stop offset="0" style="stop-color: rgba(97, 218, 251, 1)"/>
      <stop offset="1" style="stop-color: rgba(6, 189, 240, 1)"/>
    </linearGradient>
  </defs>
  <path id="london--big-ben" d="M 264.351 312.317 L 261.138 312.317 L 261.138 296.426 L 233.13 296.426 L 233.13 312.317 L 229.919 312.317 L 229.919 278.964 L 229.295 278.964 C 228.407 278.964 227.688 278.261 227.688 277.391 L 227.688 242.466 C 227.688 241.598 228.407 240.896 229.295 240.896 L 229.919 240.896 L 229.919 229.37 C 229.919 228.951 230.089 228.554 230.387 228.26 L 238.839 219.988 L 238.839 207.541 C 238.839 207.354 238.875 207.166 238.941 206.991 L 245.528 189.795 L 245.528 181.348 L 248.74 181.348 L 248.74 189.795 L 255.328 206.991 C 255.398 207.166 255.43 207.354 255.43 207.541 L 255.43 219.988 L 263.881 228.26 C 264.181 228.554 264.351 228.956 264.351 229.37 L 264.351 240.896 L 264.973 240.896 C 265.862 240.896 266.58 241.598 266.58 242.466 L 266.58 277.391 C 266.58 278.261 265.862 278.964 264.973 278.964 L 264.351 278.964 L 264.351 312.317 Z M 257.66 293.282 L 261.134 293.282 L 261.134 278.964 L 233.125 278.964 L 233.125 293.278 L 236.604 293.278 L 236.604 281.758 L 239.815 281.758 L 239.815 293.282 L 245.525 293.282 L 245.525 281.758 L 248.736 281.758 L 248.736 293.282 L 254.444 293.282 L 254.444 281.758 L 257.66 281.758 L 257.66 293.282 Z M 230.9 275.82 L 263.368 275.82 L 263.368 244.039 L 230.9 244.039 C 230.9 244.039 230.9 275.82 230.9 275.82 Z M 257.66 240.896 L 261.134 240.896 L 261.134 230.942 L 233.125 230.942 L 233.125 240.896 L 236.604 240.896 L 236.604 233.734 L 239.815 233.734 L 239.815 240.896 L 245.525 240.896 L 245.525 233.734 L 248.736 233.734 L 248.736 240.896 L 254.444 240.896 L 254.444 233.734 L 257.66 233.734 L 257.66 240.896 Z M 235.401 227.798 L 258.868 227.798 L 253.159 222.21 L 241.109 222.21 L 235.401 227.798 Z M 248.74 219.066 L 252.219 219.066 L 252.219 209.112 L 242.049 209.112 L 242.049 219.066 L 245.528 219.066 L 245.528 211.907 L 248.74 211.907 L 248.74 219.066 Z M 242.763 205.97 L 251.51 205.97 L 247.135 194.554 L 242.763 205.97 Z M 257.66 312.317 L 254.449 312.317 L 254.449 299.221 L 257.664 299.221 L 257.66 312.317 Z M 248.74 312.317 L 245.528 312.317 L 245.528 299.221 L 248.74 299.221 L 248.74 312.317 Z M 239.819 312.317 L 236.609 312.317 L 236.609 299.221 L 239.819 299.221 L 239.819 312.317 Z M 247.135 269.142 C 240.717 269.142 235.493 264.029 235.493 257.747 C 235.493 251.463 240.717 246.351 247.135 246.351 C 253.553 246.351 258.775 251.46 258.775 257.747 C 258.775 264.032 253.553 269.142 247.135 269.142 Z M 247.135 249.495 C 242.487 249.495 238.705 253.198 238.705 257.747 C 238.705 262.296 242.487 265.998 247.135 265.998 C 251.781 265.998 255.563 262.296 255.563 257.747 C 255.563 253.198 251.781 249.495 247.135 249.495 Z M 253.824 259.318 L 247.135 259.318 C 246.707 259.318 246.3 259.153 245.997 258.855 C 245.698 258.563 245.528 258.161 245.528 257.743 L 245.538 251.193 L 248.748 251.198 L 248.74 256.176 L 253.824 256.176 C 253.824 256.176 253.824 259.318 253.824 259.318 Z" style="paint-order: fill; fill-rule: nonzero; fill: url(#gradient-2);"/>
  <title>ionicons-v5_logos</title>
  <path d="M 397.536 176.151 C 392.592 174.467 387.619 172.892 382.601 171.439 C 383.433 168.057 384.204 164.654 384.906 161.231 C 396.211 106.239 388.821 61.934 363.582 47.347 C 339.42 33.355 299.794 47.94 259.818 82.808 C 255.891 86.252 252.038 89.79 248.273 93.439 C 245.758 91.019 243.18 88.645 240.539 86.327 C 198.641 49.039 156.649 33.334 131.444 47.967 C 107.284 61.988 100.102 103.634 110.277 155.761 C 111.293 160.917 112.438 166.045 113.707 171.152 C 107.761 172.844 102.026 174.658 96.537 176.568 C 47.471 193.725 16.102 220.619 16.102 248.511 C 16.102 277.337 49.776 306.231 100.928 323.756 C 105.081 325.168 109.269 326.476 113.496 327.69 C 112.126 333.16 110.905 338.689 109.854 344.282 C 100.185 395.509 107.726 436.166 131.84 450.104 C 156.743 464.493 198.527 449.708 239.252 414.043 C 242.478 411.221 245.695 408.241 248.921 405.103 C 252.992 409.039 257.18 412.864 261.482 416.567 C 300.918 450.568 339.857 464.302 363.93 450.323 C 388.821 435.886 396.907 392.201 386.399 339.052 C 385.595 334.995 384.667 330.855 383.617 326.626 C 386.555 325.753 389.433 324.854 392.25 323.927 C 445.406 306.27 480.036 277.719 480.036 248.546 C 480.015 220.511 447.636 193.446 397.536 176.151 Z M 272.858 97.791 C 307.103 67.914 339.114 56.124 353.707 64.553 C 369.236 73.533 375.277 109.737 365.519 157.22 C 364.871 160.31 364.175 163.392 363.432 166.468 C 342.994 161.816 322.269 158.536 301.403 156.648 C 289.449 139.436 276.348 123.048 262.192 107.597 C 265.655 104.234 269.209 100.968 272.837 97.791 L 272.858 97.791 Z M 153.082 272.344 C 157.276 280.467 161.66 288.487 166.237 296.404 C 170.893 304.484 175.749 312.443 180.803 320.285 C 166.441 318.723 152.168 316.424 138.045 313.397 C 142.144 300.134 147.183 286.358 153.082 272.344 Z M 153.082 225.64 C 147.285 211.925 142.375 198.429 138.345 185.405 C 151.581 182.432 165.698 180.01 180.408 178.169 C 175.477 185.868 170.731 193.671 166.175 201.588 C 161.62 209.511 157.249 217.524 153.055 225.64 L 153.082 225.64 Z M 163.617 248.996 C 169.727 236.256 176.301 223.764 183.352 211.517 C 190.397 199.276 197.892 187.315 205.844 175.633 C 219.646 174.59 233.796 174.038 248.09 174.038 C 262.383 174.038 276.621 174.59 290.41 175.639 C 298.28 187.294 305.727 199.214 312.763 211.4 C 319.802 223.586 326.463 236.018 332.765 248.709 C 326.553 261.488 319.904 274.037 312.811 286.346 C 305.781 298.586 298.376 310.581 290.588 322.33 C 276.812 323.298 262.552 323.831 248.063 323.831 C 233.563 323.831 219.578 323.381 206.055 322.501 C 198.05 310.779 190.486 298.763 183.381 286.461 C 176.274 274.151 169.673 261.665 163.59 248.996 L 163.617 248.996 Z M 329.97 296.267 C 334.641 288.159 339.128 279.949 343.424 271.629 C 349.316 284.988 354.511 298.64 358.999 312.532 C 344.713 315.75 330.262 318.219 315.716 319.931 C 320.62 312.136 325.372 304.252 329.97 296.267 Z M 343.226 225.646 C 338.95 217.497 334.504 209.443 329.88 201.486 C 325.372 193.635 320.674 185.882 315.778 178.232 C 330.576 180.106 344.774 182.603 358.085 185.643 C 353.803 199.22 348.845 212.566 343.226 225.646 Z M 248.28 121.794 C 257.929 132.344 267.046 143.37 275.584 154.834 C 257.315 153.961 239.04 153.961 220.744 154.834 C 229.765 142.906 238.992 131.84 248.28 121.794 Z M 141.415 65.139 C 156.941 56.13 191.257 69.006 227.433 101.166 C 229.746 103.218 232.07 105.373 234.396 107.609 C 220.157 123.056 206.969 139.428 194.905 156.621 C 174.079 158.497 153.395 161.721 132.985 166.283 C 131.813 161.544 130.749 156.771 129.801 151.962 C 121.051 107.282 126.842 73.595 141.415 65.139 Z M 118.794 308.549 C 114.928 307.451 111.109 306.258 107.338 304.969 C 84.725 297.235 66.04 287.143 53.213 276.157 C 41.736 266.309 35.912 256.476 35.912 248.511 C 35.912 231.593 61.103 209.995 103.103 195.355 C 108.382 193.521 113.707 191.842 119.075 190.322 C 125.307 210.371 132.862 229.983 141.687 249.036 C 132.76 268.348 125.109 288.234 118.794 308.549 Z M 226.2 399.083 C 208.189 414.855 190.159 426.04 174.256 431.672 C 159.977 436.725 148.595 436.875 141.727 432.899 C 127.094 424.443 121.003 391.786 129.31 347.985 C 130.292 342.829 131.417 337.675 132.692 332.519 C 153.301 336.959 174.188 339.993 195.212 341.596 C 207.391 358.876 220.696 375.344 235.029 390.885 C 232.153 393.715 229.2 396.443 226.2 399.083 Z M 248.833 376.639 C 239.435 366.485 230.065 355.24 220.921 343.164 C 229.806 343.512 238.848 343.683 248.063 343.683 C 257.513 343.683 266.869 343.477 276.09 343.068 C 267.579 354.715 258.481 365.921 248.833 376.639 Z M 369.18 404.272 C 366.418 419.193 360.86 429.149 353.986 433.131 C 339.366 441.614 308.099 430.588 274.384 401.509 C 270.518 398.182 266.652 394.616 262.723 390.878 C 276.779 375.277 289.769 358.739 301.601 341.39 C 322.74 339.603 343.731 336.359 364.427 331.68 C 365.369 335.505 366.208 339.256 366.937 342.931 C 371.587 366.418 372.255 387.659 369.18 404.272 Z M 385.997 305.071 C 383.467 305.916 380.855 306.728 378.209 307.52 C 371.718 287.375 363.868 267.7 354.709 248.621 C 363.528 229.798 371.069 210.405 377.288 190.574 C 382.034 191.951 386.645 193.404 391.078 194.939 C 434.011 209.751 460.205 231.668 460.205 248.511 C 460.205 266.486 431.912 289.823 385.997 305.071 Z" style="paint-order: fill; fill-rule: nonzero; fill: url(#gradient-0);"/>
</svg>